# xmcd
# 
# Track frame offsets:
#     150
#     17427
#     42870
#     63370
# 
# Disc length: 1116
# 
# Revision: 0
# Processed by: cddbd v1.5.2PL0 Copyright (c) Steve Scherf et al.
# Submitted via: BonkEnc v1.0.6
# 
DISCID=26045a04
DTITLE=Enrique Iglesias - Bailamos [CDs)
DYEAR=1999
DGENRE=Latin
TTITLE0=Bailamos (Radio Mix)
TTITLE1=Bailamos (Club Mix)
TTITLE2=Bailamos (TV Mix)
TTITLE3=Bailamos (Instrumental)
EXTD=
EXTT0=
EXTT1=
EXTT2=
EXTT3=
PLAYORDER=
